<?xml version="1.0" ?><svg style="enable-background:new 0 0 48 48;" version="1.1" viewBox="0 0 48 48" xml:space="preserve" xmlns="http://www.w3.org/2000/svg" xmlns:xlink="http://www.w3.org/1999/xlink"><g id="Icons"><g><path d="M20.73596,28.34849l-0.10872,1.27233l-4.9039,1.31421    c-2.65862,0.71263-4.75491,2.41787-5.65679,4.60177l-1.31478,3.18347c0,0,14.61484,5.52649,30.49648,0.02541l-1.31467-3.18349    c-0.90199-2.18388-2.99828-3.88914-5.6569-4.60161l-4.9039-1.31435l-0.09893-1.2321" style="fill:#1D97FF;"/><path d="M20.63855,29.4532c-0.03951,0.01001-0.07901,0.01001-0.11841,0.01001    c-0.15802,0-0.30603-0.02992-0.46394-0.07985c-0.41464-0.15959-0.75017-0.52871-0.80937-1.00748    c-0.09871-0.04993-0.20732-0.09976-0.30603-0.14969c-0.17772,0.09976-0.36523,0.1597-0.55275,0.1597    c-0.25662,0-0.51335-0.07985-0.72057-0.21953c-0.37514-0.24936-0.61206-0.6883-0.56265-1.16718    c-0.08881-0.06973-0.16782-0.13957-0.24672-0.21945c-0.10861,0.03995-0.20732,0.05986-0.31594,0.05986    c-0.35533,0-0.69096-0.15959-0.92778-0.41894c-0.30603-0.32919-0.43434-0.80807-0.27643-1.26694    c-0.0592-0.08978-0.12831-0.1696-0.18752-0.25935c-0.01981,0-0.03951,0.01999-0.0592,0.01999    c-0.46394,0-0.85878-0.27937-1.07601-0.65847c-0.15791-0.27926-0.21712-0.60845-0.14801-0.90775    c0.0197-0.11964,0.07901-0.25933,0.16782-0.39901c-0.03951-0.09976-0.08881-0.19952-0.12831-0.29927    c-0.47385-0.08975-0.81928-0.44888-0.94759-0.87783s-0.01981-0.90781,0.32573-1.237    c-0.0296-0.11967-0.03951-0.23944-0.0592-0.35911c-0.20732-0.08975-0.39484-0.20953-0.52315-0.40904    c-0.24683-0.38902-0.27643-0.91773-0.06911-1.33667c0.09871-0.20952,0.27632-0.34921,0.47374-0.46887    c0-0.11978,0.0099-0.22943,0.0099-0.34921c-0.38493-0.28927-0.54296-0.75814-0.46394-1.207    c0.07901-0.43896,0.38493-0.83799,0.84888-0.97767c0.0296-0.10966,0.0592-0.20942,0.08881-0.30917    c-0.30592-0.37913-0.35533-0.87792-0.17761-1.29686c0.18752-0.41894,0.57245-0.72822,1.06599-0.75817    c0.04941-0.09973,0.10861-0.17958,0.15791-0.26933c-0.22702-0.44888-0.14801-0.94765,0.11852-1.31676    c0.26653-0.36912,0.73036-0.57864,1.21411-0.48878c0.06911-0.07985,0.13811-0.1597,0.20721-0.22943    c-0.11841-0.47888,0.06911-0.95766,0.41464-1.24703c0.24672-0.20942,0.56254-0.3092,0.85867-0.3092    c0.12842,0,0.27643,0.02994,0.43434,0.09978c0.07901-0.04993,0.16782-0.09978,0.24683-0.14969    c0-0.23944,0.0493-0.46887,0.18752-0.66839c0.24672-0.38902,0.72057-0.62847,1.17461-0.59855    c0.24672,0.01001,0.46395,0.09976,0.64156,0.24945c0.09871-0.03993,0.19742-0.06987,0.29613-0.10977    c0.04941-0.21942,0.13822-0.43896,0.30603-0.59855c0.33563-0.32919,0.84888-0.44886,1.28322-0.30917    c0.23692,0.06984,0.40463,0.21942,0.55275,0.39903c0.10861-0.01001,0.20732-0.03993,0.31583-0.04993    c0.43434-0.86791,1.78667-0.86791,2.2209,0c0.10861,0.01001,0.20732,0.03993,0.31594,0.04993    c0.14801-0.17961,0.32573-0.32919,0.55275-0.39903c0.44414-0.13968,0.94759-0.01001,1.28322,0.30917    c0.16771,0.15959,0.25662,0.37913,0.30592,0.59855c0.10861,0.0399,0.20732,0.07985,0.30603,0.10977    c0.38493-0.29927,0.88838-0.31918,1.30292-0.10977c0.28622,0.14969,0.50345,0.38902,0.62186,0.6784    c0.03951,0.10966,0.06911,0.26936,0.0592,0.43885c0.08891,0.05992,0.17772,0.10977,0.25662,0.1597    c0.15802-0.06984,0.31594-0.09978,0.43434-0.09978c0.29613-0.01999,0.61195,0.09978,0.85878,0.3092    c0.34543,0.28938,0.53305,0.76815,0.41454,1.24703c0.06911,0.06973,0.13821,0.14958,0.20732,0.21942    c0.22702-0.03993,0.45404-0.02992,0.68106,0.06984c0.42444,0.18951,0.74026,0.60845,0.78967,1.06742    c0.0296,0.23931-0.0197,0.47877-0.12831,0.67829c0.0493,0.08975,0.09871,0.17961,0.15791,0.26933    c0.48364,0.02994,0.86858,0.33923,1.0562,0.75817c0.17761,0.41894,0.12831,0.91773-0.17772,1.29686    c0.0296,0.09976,0.0592,0.19952,0.08881,0.30917c0.15802,0.04993,0.29613,0.10977,0.39484,0.18962    c0.23692,0.18951,0.40474,0.46877,0.45415,0.79807c0.0789,0.43885-0.07901,0.90772-0.46394,1.19699    c0,0.11978,0.0098,0.22943,0.0098,0.34921c0.19742,0.11967,0.37514,0.25935,0.47385,0.46887    c0.21712,0.41894,0.18752,0.94765-0.06911,1.33667c-0.12831,0.19952-0.31583,0.31929-0.52315,0.40904    c-0.0197,0.11967-0.0296,0.23944-0.0592,0.35911c0.34543,0.32919,0.45404,0.80805,0.32573,1.237s-0.47385,0.78808-0.94759,0.87783    c-0.03951,0.09976-0.08881,0.20953-0.12831,0.30928c0.25662,0.40893,0.23692,0.90772,0.0197,1.29675    c-0.16782,0.28938-0.41454,0.49879-0.70076,0.58865c-0.10862,0.03981-0.22702,0.05983-0.37514,0.05983    c-0.0197,0-0.03951-0.01001-0.0592-0.01001c-0.0592,0.08975-0.12831,0.16957-0.18752,0.25935    c0.15791,0.45887,0.0296,0.94776-0.27643,1.27695c-0.23692,0.24934-0.57245,0.40893-0.92789,0.40893    c-0.09871,0-0.20721-0.01991-0.31583-0.05986c-0.07901,0.07987-0.15791,0.14972-0.24672,0.21945    c0.0493,0.48887-0.18762,0.91782-0.56265,1.16718c-0.20732,0.13968-0.46394,0.21953-0.72057,0.21953    c-0.18752,0-0.37514-0.05994-0.55275-0.1597c-0.09871,0.04993-0.19742,0.09976-0.30603,0.14969    c-0.0197,0.15959-0.0592,0.29927-0.10861,0.40891c-0.14801,0.26938-0.39484,0.47891-0.70076,0.59857    c-0.14812,0.04993-0.30603,0.07985-0.46395,0.07985c-0.03951,0-0.0888,0-0.12831-0.01001" style="fill:#464747;"/><path d="M27.37276,29.64623c0.00006,3.84891-6.7361,3.81145-6.73616-0.03239v-1.59631h6.73616V29.64623z" style="fill:#DDBEA8;"/><path d="M29.31604,24.83902c0.78108,0.1399,1.63485-0.53421,1.86285-1.48262    c0.228-0.94831-0.2009-2.15432-0.98198-2.29433l-1.35483,2.05038l-0.11003-3.22075v-0.00011v0    c0.14485-0.93232-0.63269-1.74597-1.55969-1.63213l-3.1727,0.38961l-3.1727-0.38961    c-0.927-0.11384-1.70454,0.69981-1.55969,1.63213v0v0.00011l-0.16923,3.3171l-1.34961-2.18533    c-0.72775,0.1399-1.14555,1.38463-0.933,2.33294c0.21244,0.94842,0.97469,1.60372,1.70255,1.46382    c0.71349,2.6431,2.8494,4.72788,5.37807,4.72788C26.47143,29.54809,28.64336,27.55768,29.31604,24.83902z" style="fill:#F9D9C0;"/><path d="    M20.72577,28.46775l-0.09853,1.15307l-4.9039,1.31421c-2.65862,0.71263-4.75491,2.41787-5.65679,4.60177l-1.31478,3.18347    c0,0,14.61484,5.52649,30.49648,0.02541l-1.31467-3.18349c-0.90199-2.18388-2.99828-3.88914-5.6569-4.60161l-4.9039-1.31435    l-0.09893-1.2321" style="fill:none;stroke:#303030;stroke-width:0.8;stroke-linecap:round;stroke-linejoin:round;stroke-miterlimit:10;"/><path d="    M29.31604,24.83902c0.78108,0.1399,1.63485-0.53421,1.86285-1.48262c0.228-0.94831-0.2009-2.15432-0.98198-2.29433    l-1.35483,2.05038l-0.11003-3.22075v-0.00011v0c-0.00193-1.08268-0.63269-1.74597-1.55969-1.63213l-3.1727,0.38961    l-3.1727-0.38961c-0.927-0.11384-1.52139,0.53441-1.55969,1.63213v0v0.00011l-0.16923,3.3171l-1.34961-2.18533    c-0.72775,0.1399-1.14555,1.38463-0.933,2.33294c0.21244,0.94842,0.97469,1.60372,1.70255,1.46382    c0.71349,2.6431,2.8494,4.72788,5.37807,4.72788C26.47143,29.54809,28.64336,27.55768,29.31604,24.83902z" style="fill:none;stroke:#303030;stroke-width:0.8;stroke-linecap:round;stroke-linejoin:round;stroke-miterlimit:10;"/><path d="    M20.63855,29.4532c-0.03951,0.01001-0.07901,0.01001-0.11841,0.01001c-0.15802,0-0.30603-0.02992-0.46394-0.07985    c-0.41464-0.15959-0.75017-0.52871-0.80937-1.00748c-0.09871-0.04993-0.20732-0.09976-0.30603-0.14969    c-0.17772,0.09976-0.36523,0.1597-0.55275,0.1597c-0.25662,0-0.51335-0.07985-0.72057-0.21953    c-0.37514-0.24936-0.61206-0.6883-0.56265-1.16718c-0.08881-0.06973-0.16782-0.13957-0.24672-0.21945    c-0.10861,0.03995-0.20732,0.05986-0.31594,0.05986c-0.35533,0-0.69096-0.15959-0.92778-0.41894    c-0.30603-0.32919-0.43434-0.80807-0.27643-1.26694c-0.0592-0.08978-0.12831-0.1696-0.18752-0.25935    c-0.01981,0-0.03951,0.01999-0.0592,0.01999c-0.46394,0-0.85878-0.27937-1.07601-0.65847    c-0.15791-0.27926-0.21712-0.60845-0.14801-0.90775c0.0197-0.11964,0.07901-0.25933,0.16782-0.39901    c-0.03951-0.09976-0.08881-0.19952-0.12831-0.29927c-0.47385-0.08975-0.81928-0.44888-0.94759-0.87783    s-0.01981-0.90781,0.32573-1.237c-0.0296-0.11967-0.03951-0.23944-0.0592-0.35911    c-0.20732-0.08975-0.39484-0.20953-0.52315-0.40904c-0.24683-0.38902-0.27643-0.91773-0.06911-1.33667    c0.09871-0.20952,0.27632-0.34921,0.47374-0.46887c0-0.11978,0.0099-0.22943,0.0099-0.34921    c-0.38493-0.28927-0.54296-0.75814-0.46394-1.207c0.07901-0.43896,0.38493-0.83799,0.84888-0.97767    c0.0296-0.10966,0.0592-0.20942,0.08881-0.30917c-0.30592-0.37913-0.35533-0.87792-0.17761-1.29686    c0.18752-0.41894,0.57245-0.72822,1.06599-0.75817c0.04941-0.09973,0.10861-0.17958,0.15791-0.26933    c-0.22702-0.44888-0.14801-0.94765,0.11852-1.31676c0.26653-0.36912,0.73036-0.57864,1.21411-0.48878    c0.06911-0.07985,0.13811-0.1597,0.20721-0.22943c-0.11841-0.47888,0.06911-0.95766,0.41464-1.24703    c0.24672-0.20942,0.56254-0.3092,0.85867-0.3092c0.12842,0,0.27643,0.02994,0.43434,0.09978    c0.07901-0.04993,0.16782-0.09978,0.24683-0.14969c0-0.23944,0.0493-0.46887,0.18752-0.66839    c0.24672-0.38902,0.72057-0.62847,1.17461-0.59855c0.24672,0.01001,0.46395,0.09976,0.64156,0.24945    c0.09871-0.03993,0.19742-0.06987,0.29613-0.10977c0.04941-0.21942,0.13822-0.43896,0.30603-0.59855    c0.33563-0.32919,0.84888-0.44886,1.28322-0.30917c0.23692,0.06984,0.40463,0.21942,0.55275,0.39903    c0.10861-0.01001,0.20732-0.03993,0.31583-0.04993c0.43434-0.86791,1.78667-0.86791,2.2209,0    c0.10861,0.01001,0.20732,0.03993,0.31594,0.04993c0.14801-0.17961,0.32573-0.32919,0.55275-0.39903    c0.44414-0.13968,0.94759-0.01001,1.28322,0.30917c0.16771,0.15959,0.25662,0.37913,0.30592,0.59855    c0.10861,0.0399,0.20732,0.07985,0.30603,0.10977c0.38493-0.29927,0.88838-0.31918,1.30292-0.10977    c0.28622,0.14969,0.50345,0.38902,0.62186,0.6784c0.03951,0.10966,0.06911,0.26936,0.0592,0.43885    c0.08891,0.05992,0.17772,0.10977,0.25662,0.1597c0.15802-0.06984,0.31594-0.09978,0.43434-0.09978    c0.29613-0.01999,0.61195,0.09978,0.85878,0.3092c0.34543,0.28938,0.53305,0.76815,0.41454,1.24703    c0.06911,0.06973,0.13821,0.14958,0.20732,0.21942c0.22702-0.03993,0.45404-0.02992,0.68106,0.06984    c0.42444,0.18951,0.74026,0.60845,0.78967,1.06742c0.0296,0.23931-0.0197,0.47877-0.12831,0.67829    c0.0493,0.08975,0.09871,0.17961,0.15791,0.26933c0.48364,0.02994,0.86858,0.33923,1.0562,0.75817    c0.17761,0.41894,0.12831,0.91773-0.17772,1.29686c0.0296,0.09976,0.0592,0.19952,0.08881,0.30917    c0.15802,0.04993,0.29613,0.10977,0.39484,0.18962c0.23692,0.18951,0.40474,0.46877,0.45415,0.79807    c0.0789,0.43885-0.07901,0.90772-0.46394,1.19699c0,0.11978,0.0098,0.22943,0.0098,0.34921    c0.19742,0.11967,0.37514,0.25935,0.47385,0.46887c0.21712,0.41894,0.18752,0.94765-0.06911,1.33667    c-0.12831,0.19952-0.31583,0.31929-0.52315,0.40904c-0.0197,0.11967-0.0296,0.23944-0.0592,0.35911    c0.34543,0.32919,0.45404,0.80805,0.32573,1.237s-0.47385,0.78808-0.94759,0.87783    c-0.03951,0.09976-0.08881,0.20953-0.12831,0.30928c0.25662,0.40893,0.23692,0.90772,0.0197,1.29675    c-0.16782,0.28938-0.41454,0.49879-0.70076,0.58865c-0.10862,0.03981-0.22702,0.05983-0.37514,0.05983    c-0.0197,0-0.03951-0.01001-0.0592-0.01001c-0.0592,0.08975-0.12831,0.16957-0.18752,0.25935    c0.15791,0.45887,0.0296,0.94776-0.27643,1.27695c-0.23692,0.24934-0.57245,0.40893-0.92789,0.40893    c-0.09871,0-0.20721-0.01991-0.31583-0.05986c-0.07901,0.07987-0.15791,0.14972-0.24672,0.21945    c0.0493,0.48887-0.18762,0.91782-0.56265,1.16718c-0.20732,0.13968-0.46394,0.21953-0.72057,0.21953    c-0.18752,0-0.37514-0.05994-0.55275-0.1597c-0.09871,0.04993-0.19742,0.09976-0.30603,0.14969    c-0.0197,0.15959-0.0592,0.29927-0.10861,0.40891c-0.14801,0.26938-0.39484,0.47891-0.70076,0.59857    c-0.14812,0.04993-0.30603,0.07985-0.46395,0.07985c-0.03951,0-0.0888,0-0.12831-0.01001" style="fill:none;stroke:#303030;stroke-width:0.8;stroke-linecap:round;stroke-linejoin:round;stroke-miterlimit:10;"/><path d="    M20.6366,29.61384c0.00006,3.84384,6.73622,3.8813,6.73616,0.03239" style="fill:none;stroke:#303030;stroke-width:0.8;stroke-linecap:round;stroke-linejoin:round;stroke-miterlimit:10;"/></g></g></svg>