<?xml version="1.0" encoding="utf-8"?>
<!-- Generator: Adobe Illustrator 22.1.0, SVG Export Plug-In . SVG Version: 6.00 Build 0)  -->
<svg version="1.1" id="Layer_1" xmlns="http://www.w3.org/2000/svg" xmlns:xlink="http://www.w3.org/1999/xlink" x="0px" y="0px"
	 viewBox="0 0 100 100" style="enable-background:new 0 0 100 100;" xml:space="preserve">
<style type="text/css">
	.st0{fill:#FFFFFF;}
</style>
<g>
	<g>
		<circle class="st0" cx="50" cy="10.9" r="2.6"/>
		<path class="st0" d="M54.3,6.2v7.9h-0.7h-0.7l-5.9,0l-0.7,0h-0.7V6.2c0-1.6-2.1-1.6-2.1,0v8.1c0,1.8,1,3.5,3.1,3.5h0l0,21.5
			c0,0.8,0.7,1.5,1.5,1.5c0.8,0,1.5-0.7,1.5-1.5l0-12.5h0.7l0,12.5c0,0.8,0.7,1.5,1.5,1.5c0.8,0,1.5-0.7,1.5-1.5l0-21.5
			c2.1,0,3.1-1.7,3.1-3.5V6.2C56.4,4.6,54.3,4.6,54.3,6.2z"/>
	</g>
	<g>
		<circle class="st0" cx="22.5" cy="77.6" r="2.9"/>
		<path class="st0" d="M15.6,77l5.6-5.6l0.5,0.5l0.5,0.5l5.6,5.6l0.5,0.5l0.5,0.5l-5.6,5.6c-1.1,1.1,0.3,2.6,1.5,1.5l5.7-5.7
			c1.2-1.2,1.7-3.2,0.3-4.7l0,0l15.2-15.2c0.6-0.6,0.6-1.5,0-2.1c-0.6-0.6-1.5-0.6-2.1,0l-8.8,8.8l-1.9-1.9l8.8-8.8
			c0.6-0.6,0.6-1.5,0-2.1c-0.6-0.6-1.5-0.6-2.1,0L24.5,69.5c-1.5-1.5-3.4-1-4.6,0.3l-5.7,5.7C13,76.7,14.4,78.1,15.6,77z"/>
	</g>
	<g>
		<path class="st0" d="M50,86.4c-1.5,0-2.7,1.2-2.7,2.7c0,1.5,1.2,2.6,2.7,2.6c1.5,0,2.6-1.2,2.6-2.6C52.7,87.6,51.5,86.4,50,86.4z
			 M50,91.2c-1.2,0-2.1-1-2.1-2.1c0-1.2,1-2.1,2.1-2.1s2.1,1,2.1,2.1C52.1,90.3,51.2,91.2,50,91.2z"/>
		<path class="st0" d="M44.6,95c0.5,0,1-0.4,1-1.2v-7.9h0.7h0.7l5.9,0l0.7,0h0.7v7.9c0,0.8,0.5,1.2,1,1.2c0.5,0,1-0.4,1-1.2v-8.1
			c0-1.8-1-3.5-3.1-3.5h0l0-21.5c0-0.8-0.7-1.5-1.5-1.5c-0.8,0-1.5,0.7-1.5,1.5l0,12.5h-0.7l0-12.5c0-0.8-0.7-1.5-1.5-1.5
			c-0.8,0-1.5,0.7-1.5,1.5l0,21.5c-2.1,0-3.1,1.7-3.1,3.5v8.1C43.6,94.6,44.1,95,44.6,95z M44.1,85.7c0-1.4,0.8-3,2.6-3h0.5v-0.5
			l0-21.5c0-0.5,0.4-1,1-1c0.5,0,1,0.4,1,1l0,12.5l0,0.5h0.5h0.7h0.5v-0.5l0-12.5c0-0.5,0.4-1,1-1c0.5,0,1,0.4,1,1l0,21.5l0,0.5h0.5
			c1.8,0,2.6,1.5,2.6,3v8.1c0,0.2-0.1,0.4-0.2,0.5c-0.1,0.1-0.2,0.1-0.3,0.1c-0.2,0-0.5-0.2-0.5-0.7v-7.9v-0.5h-0.5h-0.7l-0.7,0
			l-5.9,0h-0.7h-0.7h-0.5v0.5v7.9c0,0.5-0.3,0.7-0.5,0.7c-0.1,0-0.3-0.1-0.3-0.1c-0.1-0.1-0.2-0.3-0.2-0.5
			C44.1,93.8,44.1,85.7,44.1,85.7z"/>
	</g>
	<g>
		<circle class="st0" cx="84" cy="49.2" r="2.6"/>
		<path class="st0" d="M87.2,53.5h-6.4v-0.7v-0.7l0-5.9l0-0.7v-0.7h6.4c1.6,0,1.6-2.1,0-2.1h-6.6c-1.8,0-3.5,1-3.5,3.1v0l-16.4,0
			c-0.8,0-1.5,0.7-1.5,1.5c0,0.8,0.7,1.5,1.5,1.5l7.4,0v0.7l-7.4,0c-0.8,0-1.5,0.7-1.5,1.5c0,0.8,0.7,1.5,1.5,1.5l16.4,0
			c0,2.1,1.7,3.1,3.5,3.1l6.6,0C88.8,55.6,88.8,53.5,87.2,53.5z"/>
	</g>
	<g>
		<path class="st0" d="M18.7,50.1c0-1.5-1.2-2.6-2.6-2.6c-1.5,0-2.6,1.2-2.6,2.6c0,1.5,1.2,2.7,2.6,2.7
			C17.5,52.8,18.7,51.6,18.7,50.1z M13.9,50.1c0-1.2,0.9-2.1,2.1-2.1s2.1,0.9,2.1,2.1c0,1.2-0.9,2.1-2.1,2.1S13.9,51.3,13.9,50.1z"
			/>
		<path class="st0" d="M11.6,44.7c0,0.5,0.4,1,1.2,1h6.4v0.7v0.7l0,5.9l0,0.7v0.7h-6.4c-0.8,0-1.2,0.5-1.2,1c0,0.5,0.4,1,1.2,1h6.6
			c1.8,0,3.5-1,3.5-3.1v0l16.4,0c0.8,0,1.5-0.7,1.5-1.5c0-0.8-0.7-1.5-1.5-1.5l-10.4,0v-0.7l10.4,0c0.8,0,1.5-0.7,1.5-1.5
			c0-0.8-0.7-1.5-1.5-1.5l-16.4,0c0-2.1-1.7-3.1-3.5-3.1h-6.6C12,43.7,11.6,44.2,11.6,44.7z M19.4,44.3c1.5,0,2.9,0.8,2.9,2.5v0.6
			h0.6l16.4,0c0.5,0,0.9,0.4,0.9,0.9s-0.4,0.9-0.9,0.9l-10.4,0h-0.6v0.6v0.7V51h0.6l10.4,0c0.5,0,0.9,0.4,0.9,0.9
			c0,0.5-0.4,0.9-0.9,0.9l-16.4,0l-0.6,0v0.6c0,1.8-1.5,2.5-2.9,2.5h-6.6c-0.2,0-0.4-0.1-0.5-0.2c-0.1-0.1-0.1-0.2-0.1-0.3
			c0-0.2,0.2-0.5,0.6-0.5h6.4h0.6v-0.6v-0.7l0-0.7l0-5.9v-0.7v-0.7v-0.6h-0.6h-6.4c-0.5,0-0.6-0.3-0.6-0.5c0-0.1,0-0.2,0.1-0.3
			c0.1-0.1,0.3-0.2,0.5-0.2L19.4,44.3L19.4,44.3z"/>
	</g>
	<g>
		<path class="st0" d="M24,24.6c0.5-0.5,0.8-1.2,0.8-1.9l1.3-1.3l-2.3-0.8l0,0c-1-0.8-2.6-0.8-3.5,0.2c-1,1-1,2.5-0.2,3.5l0,0
			l0.8,2.3l1.3-1.3C22.8,25.4,23.5,25.1,24,24.6z"/>
		<path class="st0" d="M29.1,20.6l-5.7-5.7c-1.1-1.1-2.6,0.3-1.5,1.5l5.6,5.6L27,22.4l-0.5,0.5l-4.2,4.2l-0.5,0.5L21.4,28l-5.6-5.6
			c-1.1-1.1-2.6,0.3-1.5,1.5l5.7,5.7c1.2,1.2,3.2,1.7,4.6,0.3l0,0l3.8,3.8l3.9,6.6l1.4-1.4l6.1,6.1c0.6,0.6,1.5,0.6,2.1,0
			c0.6-0.6,0.6-1.5,0-2.1l-6.1-6.1l0.5-0.5l6.1,6.1c0.6,0.6,1.5,0.6,2.1,0c0.6-0.6,0.6-1.5,0-2.1l-6.1-6.1l1.4-1.4l-6.6-3.9
			l-3.8-3.8C30.8,23.8,30.3,21.8,29.1,20.6z"/>
	</g>
	<g>
		<path class="st0" d="M67.8,77.1l5,5c0.6,0.6,1.2,0.5,1.6,0.1c0.4-0.4,0.5-1-0.1-1.6l-4.9-4.9l0.5-0.5l0.9-0.9l4.2-4.2l0.8-0.8
			l0.5-0.5l4.9,4.9c0.6,0.6,1.2,0.5,1.6,0.1c0.4-0.4,0.5-1-0.1-1.6l-5-5c-1.2-1.2-3.5-1.4-5,0.1l0.4,0.4c1.3-1.3,3.2-1.1,4.2-0.1
			l5,5c0.2,0.2,0.2,0.3,0.2,0.5c0,0.1,0,0.2-0.1,0.3c-0.2,0.2-0.5,0.2-0.8-0.1l-4.9-4.9l-0.4-0.4l-0.4,0.4L75.3,69l-0.8,0.8L70.3,74
			l-0.9,0.9L69,75.4l-0.4,0.4l0.4,0.4l4.9,4.9c0.3,0.3,0.3,0.6,0.1,0.8c-0.1,0.1-0.2,0.1-0.3,0.1c-0.2,0-0.3-0.1-0.5-0.2l-5-5
			c-1-1-1.5-2.6-0.3-3.9l0.4-0.4l-0.4-0.4l-2.4-2.4l-0.1-0.1l-0.1,0l-4.9-2.5l0.8-0.8l0.4-0.4l-0.4-0.4l-6.1-6.1
			c-0.4-0.4-0.4-1,0-1.3c0.4-0.4,1-0.4,1.3,0l6.1,6.1l0.4,0.4l0.4-0.4l1.2-1.2l0.4-0.4l-0.4-0.4l-6.1-6.1c-0.4-0.4-0.4-1,0-1.3
			c0.4-0.4,1-0.4,1.3,0l6.1,6.1l0.4,0.4l0.4-0.4l0.8-0.8l2.5,4.9l0,0.1l0.1,0.1l2.4,2.4l0,0l0.4-0.4l-2.4-2.4l-2.8-5.6l-1.4,1.4
			l-6.1-6.1c-0.6-0.6-1.5-0.6-2.1,0c-0.6,0.6-0.6,1.5,0,2.1l6.1,6.1L63,63.8l-6.1-6.1c-0.6-0.6-1.5-0.6-2.1,0
			c-0.6,0.6-0.6,1.5,0,2.1l6.1,6.1l-1.4,1.4l5.6,2.8l2.4,2.4C66,73.9,66.5,75.8,67.8,77.1z"/>
		<path class="st0" d="M73.3,76.7L73.3,76.7c1.1,0.8,2.6,0.8,3.5-0.2s1-2.5,0.2-3.5l0,0l-2-2.1l-3.9,3.9L73.3,76.7z M75.1,71.6
			l1.4,1.5l0.2,0.2c0.7,0.8,0.6,2-0.1,2.8c-0.8,0.8-1.9,0.8-2.8,0.1l-0.2-0.1L72,74.6L75.1,71.6z"/>
	</g>
	<g>
		<path class="st0" d="M74.2,26c1,1,2.7,1,3.7,0c0.4-0.1,0.7-0.4,1-0.7c1.1-1.1,1.1-3,0-4.1c-1.1-1.1-3-1.1-4.1,0
			c-0.3,0.3-0.5,0.7-0.7,1C73.2,23.3,73.2,24.9,74.2,26z M78.5,21.6c0.9,0.9,0.9,2.4,0,3.3c-0.2,0.2-0.5,0.4-0.9,0.5l-0.1,0
			l-0.1,0.1c-0.8,0.8-2.1,0.8-2.9,0c-0.8-0.8-0.8-2.1,0-2.9l0.1-0.1l0-0.1c0.1-0.3,0.3-0.6,0.5-0.9C76.1,20.7,77.6,20.7,78.5,21.6z"
			/>
		<path class="st0" d="M78.4,31.2l4.6-4.6c0.4-0.4,0.5-0.8,0.5-1.1c0-1-1.3-1.8-2.3-0.8L76.8,29l-5.7-5.7l4.3-4.3
			c1-1,0.2-2.3-0.8-2.3c-0.3,0-0.7,0.1-1.1,0.5L69,21.8c-1.2,1.2-1.9,3.2-0.5,4.8l-1.8,1.8L56.2,36l1.4,1.4l-2.4,2.4
			c-0.7,0.7-0.7,1.8,0,2.5c0.7,0.7,1.8,0.7,2.5,0l2.4-2.4l0.1,0.1l-2.4,2.4c-0.7,0.7-0.7,1.8,0,2.5s1.8,0.7,2.5,0l2.4-2.4l1.4,1.4
			l7.6-10.4l1.9-1.9C75.2,33.1,77.2,32.4,78.4,31.2z M71.3,33.2L64,43.1l-1.4-1.4l-2.8,2.8c-0.5,0.5-1.2,0.5-1.7,0
			c-0.5-0.5-0.5-1.2,0-1.7L61,40l-0.9-0.9l-2.8,2.7c-0.5,0.5-1.2,0.5-1.7,0c-0.5-0.5-0.5-1.2,0-1.7l2.8-2.7l-1.3-1.3l10-7.3l2-2
			l0.2-0.2l-0.2-0.2c-1.4-1.4-0.8-3.2,0.3-4.3l4.6-4.6c0.2-0.2,0.4-0.3,0.7-0.3c0.6,0,1.1,0.7,0.4,1.4l-4.7,4.7l6.5,6.5l4.7-4.7
			c0.7-0.7,1.4-0.2,1.4,0.4c0,0.2-0.1,0.5-0.3,0.7L78,30.8c-1.1,1.1-2.9,1.6-4.3,0.3l-0.2-0.2L71.3,33.2z"/>
	</g>
</g>
</svg>
