<?xml version="1.0" encoding="utf-8"?>
<!-- Generator: Adobe Illustrator 22.1.0, SVG Export Plug-In . SVG Version: 6.00 Build 0)  -->
<svg version="1.1" id="Layer_1" xmlns="http://www.w3.org/2000/svg" xmlns:xlink="http://www.w3.org/1999/xlink" x="0px" y="0px"
	 viewBox="0 0 48 48" style="enable-background:new 0 0 48 48;" xml:space="preserve">
<style type="text/css">
	.st0{fill:#FFFFFF;}
</style>
<g>
	<path class="st0" d="M47.7,12.7c-0.4-0.4-1-0.4-1.4,0c-2.8,2.8-7.5,3.5-13.1,2.1c-1.5-5.6-0.7-10.2,2.1-13.1c0.4-0.4,0.4-1,0-1.4
		s-1-0.4-1.4,0c-3.1,3.2-4.1,8.1-2.8,13.9c-1.7-0.4-3.2-0.5-4.7-0.5c-4.4,0-7.9,1.6-10.2,4.5c-2.4,3.1-3,7.7-1.9,12.9
		c-5.9-1.3-10.8-0.3-13.9,2.8c-0.4,0.4-0.4,1,0,1.4s1,0.4,1.4,0c2.8-2.8,7.5-3.5,13.1-2.1c1.5,5.6,0.7,10.2-2.1,13.1
		c-0.4,0.4-0.4,1,0,1.4c0.2,0.2,0.4,0.3,0.7,0.3s0.5-0.1,0.7-0.3c3.1-3.2,4.1-8.1,2.8-13.9c1.7,0.4,3.2,0.5,4.7,0.5l0,0
		c4.4,0,7.9-1.6,10.2-4.5c2.4-3.1,3-7.7,1.9-12.9c1.7,0.4,3.3,0.6,4.8,0.6c3.8,0,6.9-1.1,9.2-3.4C48.1,13.8,48.1,13.1,47.7,12.7z
		 M30.3,28.6c-1.8,2.4-4.8,3.7-8.6,3.7c-1.6,0-3.4-0.2-5.3-0.7c-1.3-5-0.8-9.4,1.3-12.2c1.8-2.4,4.8-3.7,8.6-3.7
		c1.6,0,3.4,0.2,5.3,0.7C32.9,21.4,32.4,25.8,30.3,28.6z"/>
	<path class="st0" d="M35.2,5.2l7.6,7.6c0.2,0.2,0.5,0.3,0.7,0.3c0.3,0,0.5-0.1,0.7-0.3c0.4-0.4,0.4-1,0-1.4l-7.6-7.6
		c-0.4-0.4-1-0.4-1.4,0C34.9,4.2,34.9,4.8,35.2,5.2z"/>
	<path class="st0" d="M33.7,7.7c-0.4,0.4-0.4,1,0,1.4l5.2,5.2c0.2,0.2,0.5,0.3,0.7,0.3c0.3,0,0.5-0.1,0.7-0.3c0.4-0.4,0.4-1,0-1.4
		l-5.2-5.2C34.7,7.3,34.1,7.3,33.7,7.7z"/>
	<path class="st0" d="M12.8,42.7l-7.6-7.6c-0.4-0.4-1-0.4-1.4,0s-0.4,1,0,1.4l7.6,7.6c0.2,0.2,0.5,0.3,0.7,0.3s0.5-0.1,0.7-0.3
		C13.2,43.8,13.2,43.1,12.8,42.7z"/>
	<path class="st0" d="M13.6,40.5c0.3,0,0.5-0.1,0.7-0.3c0.4-0.4,0.4-1,0-1.4l-5.2-5.2c-0.4-0.4-1-0.4-1.4,0s-0.4,1,0,1.4l5.2,5.2
		C13.1,40.4,13.4,40.5,13.6,40.5z"/>
	<path class="st0" d="M20.9,19.5c-0.4-0.4-1-0.4-1.4,0s-0.4,1,0,1.4l7.6,7.6c0.2,0.2,0.5,0.3,0.7,0.3c0.3,0,0.5-0.1,0.7-0.3
		c0.4-0.4,0.4-1,0-1.4L20.9,19.5z"/>
	<path class="st0" d="M18.9,23.9c-0.4-0.4-1-0.4-1.4,0s-0.4,1,0,1.4l5.2,5.2c0.2,0.2,0.5,0.3,0.7,0.3c0.3,0,0.5-0.1,0.7-0.3
		c0.4-0.4,0.4-1,0-1.4L18.9,23.9z"/>
	<path class="st0" d="M25.3,17.5c-0.4-0.4-1-0.4-1.4,0s-0.4,1,0,1.4l5.2,5.2c0.2,0.2,0.5,0.3,0.7,0.3s0.5-0.1,0.7-0.3
		c0.4-0.4,0.4-1,0-1.4L25.3,17.5z"/>
</g>
</svg>
