<?xml version="1.0" encoding="utf-8"?>
<!-- Generator: Adobe Illustrator 22.1.0, SVG Export Plug-In . SVG Version: 6.00 Build 0)  -->
<svg version="1.1" id="Layer_1" xmlns="http://www.w3.org/2000/svg" xmlns:xlink="http://www.w3.org/1999/xlink" x="0px" y="0px"
	 viewBox="0 0 90 90" style="enable-background:new 0 0 90 90;" xml:space="preserve">
<style type="text/css">
	.st0{fill:#FFFFFF;}
</style>
<path class="st0" d="M84,50.7c-3.3-8-6.5-16.1-9.8-24.1c-0.3-0.6-0.3-1,0.3-1.5c1.2-1.2,1.1-3.2-0.1-4.3c-1.3-1.1-3.2-1-4.3,0.4
	c-0.5,0.6-0.9,0.7-1.6,0.7c-5.9,0-11.8,0-17.8,0c-0.9,0-1.3-0.2-1.7-1c-0.7-1.5-2-2.2-3.7-2.2s-3.1,0.8-3.8,2.3
	c-0.4,0.9-0.9,0.9-1.6,0.9c-6.1,0-12.2,0-18.4,0c-0.7,0-1.1-0.1-1.6-0.7c-0.8-1.1-2.2-1.4-3.5-0.9c-1.1,0.5-2,1.7-1.8,2.8
	c0.2,1,0.8,1.8,1.2,2.7c0.1,0,0.1,0.4,0,0.7c-3.3,8.3-6.7,16.5-10,24.8c-0.3,0.8-0.5,1.7-0.4,2.5c0.4,6.1,5.3,10.9,11.2,11.4
	c6.3,0.4,11.8-3.5,13.1-9.6c0.3-1.2,0.3-2.7,0-3.8c-0.8-2.5-2-4.9-3-7.4c-2.4-5.8-4.7-11.7-7.1-17.6c-0.6-1.5,0.2-2.6,1.8-2.6h18.1
	c1.8,0,3.1,1.3,3.1,3.2c0,5.5,0,11,0,16.4h-9.3c-0.3,0-0.6-0.1-0.8,0c-0.4,0.3-0.8,0.7-0.8,1.1s0.5,0.8,0.9,1
	c0.3,0.2,0.7,0.1,1.1,0.1h9c0,7.2,0,14.3,0,21.5v1.4h-1.3c-2.9,0-5.8,0-8.6,0c-0.8,0-1.3,0.3-1.3,1.1c0,0.8,0.5,1.1,1.2,1.2
	c0.2,0,0.4,0,0.6,0H43c1.7,0,2-0.3,2-2V46.1h0.6c0,0.5,0,1.1,0,1.6c0,7.2,0,14.4,0,21.6c0,1.5,0.3,1.9,1.6,2c3.2,0,6.4,0,9.6,0
	c0.8,0,1.5-0.3,1.4-1.2c0-0.9-0.7-1.1-1.4-1.1c-1.8,0-3.6,0-5.4,0h-3.5V46.2h7.8c0.6,0,1.2,0.1,1.8-0.1c0.4-0.1,0.9-0.7,0.9-1
	c0-0.4-0.6-0.8-0.9-1.1c-0.1-0.1-0.5,0-0.7,0h-8.9V27.5c0-0.2,0-0.4,0-0.6c0.1-0.8,1.5-2.5,2.1-2.5c6.3,0,12.6,0,18.8,0
	c1.1,0,2.1,1.4,1.6,2.5c-3.2,7.9-6.4,15.8-9.6,23.6c-0.4,1-0.9,2-0.9,3c0.2,6.1,4.9,11.1,11,11.8c6,0.7,11.6-3.1,13.3-8.9
	C84.8,54.4,84.8,52.6,84,50.7z M17.7,22c0.6,0,1,0.5,1,1c0,0.6-0.5,1-1,1s-1-0.5-1-1C16.7,22.4,17.1,22,17.7,22z M17.6,62.9
	c-5,0-9.7-4.2-9.8-8.8h19.8C27.4,58.9,22.8,63,17.6,62.9z M27.3,51.8H8.2c3.2-7.8,6.3-15.6,9.6-23.6C21,36.2,24.1,43.9,27.3,51.8z
	 M45.5,28.3c0,5.2,0,10.3,0,15.5h-0.6c0-0.5,0-0.9,0-1.4c0-4.7,0-9.4,0-14c0-0.4,0.1-0.8,0.2-1.2c0.1,0,0.3,0,0.4,0
	C45.5,27.6,45.5,28,45.5,28.3z M72.4,22c0.6,0,1,0.5,1,1c0,0.6-0.5,1-1,1s-1-0.5-1-1C71.3,22.4,71.8,22,72.4,22z M72.3,28.1
	c3.3,8,6.4,15.7,9.5,23.6H62.7C65.9,43.9,69,36.2,72.3,28.1z M73.5,62.9c-5.7,0.5-10.6-3.3-11.2-8.7h19.8C82.4,58,78,62.5,73.5,62.9
	z"/>
</svg>
