<?xml version="1.0" encoding="utf-8"?>
<!-- Generator: Adobe Illustrator 22.1.0, SVG Export Plug-In . SVG Version: 6.00 Build 0)  -->
<svg version="1.1" id="Layer_1" xmlns="http://www.w3.org/2000/svg" xmlns:xlink="http://www.w3.org/1999/xlink" x="0px" y="0px"
	 viewBox="0 0 68 68" style="enable-background:new 0 0 68 68;" xml:space="preserve">
<style type="text/css">
	.st0{fill:#FFFFFF;}
</style>
<g>
	<g>
		<path class="st0" d="M33.2,5.7L33.2,5.7l3.9,3.9c0.4,0.4,1,0.4,1.4,0s0.4-1,0-1.4l-2.1-2.1C49.2,7.3,59.8,17.2,61.6,30
			c0.1,0.5,0.6,0.9,1.1,0.8s0.9-0.6,0.8-1.1c-1.9-13.5-12.8-24-26.1-25.5l2.5-1.3c0.5-0.3,0.7-0.9,0.4-1.4C40.1,1,39.5,0.9,39,1.1
			l-5.5,3C32.9,4.4,32.8,5.2,33.2,5.7z"/>
	</g>
	<g>
		<path class="st0" d="M66.8,37.8l-3.1-4.4c-0.3-0.4-1.1-0.6-1.5-0.1l-3.9,3.9c-0.4,0.4-0.4,1,0,1.4s1,0.4,1.4,0l2.1-2.1
			c-1.2,12.9-11.1,23.5-24,25.3c-0.5,0.1-0.9,0.6-0.9,1.1c0.1,0.6,0.6,0.9,1.1,0.9c13.8-1.9,24.4-13.2,25.7-26.9l1.5,2
			c0.3,0.4,1,0.5,1.4,0.2C67,38.9,67.1,38.3,66.8,37.8z"/>
	</g>
	<g>
		<path class="st0" d="M34.7,62.4L30.3,58c-0.4-0.4-1-0.4-1.4,0s-0.4,1,0,1.4l2.5,2.5C18.8,60.8,8.3,51,6.4,38.3
			c-0.1-0.5-0.6-0.9-1.1-0.8c-0.5,0.1-0.9,0.6-0.8,1.1c2,13.3,12.8,23.6,25.8,25.3l-2.5,1.3c-0.5,0.2-0.7,0.8-0.4,1.3
			c0.2,0.5,0.9,0.7,1.3,0.4l5.8-2.9C35,63.7,35.2,62.9,34.7,62.4z"/>
	</g>
	<g>
		<path class="st0" d="M5,35L5,35L5,35L5,35c0.3,0,0.5-0.1,0.7-0.3l4.1-4.1c0.4-0.4,0.4-1,0-1.4s-1-0.4-1.4,0l-2.3,2.3
			c1.1-12.6,10.5-23,23.1-25.1c0.5-0.1,0.9-0.6,0.8-1.2c0-0.5-0.5-0.9-1-0.8C15.5,6.7,5.5,17.6,4.2,31l-1.4-2.1
			c-0.3-0.5-0.9-0.6-1.4-0.3c-0.4,0.3-0.5,1-0.2,1.4l3,4.6l0,0C4.4,34.9,4.7,35,5,35z"/>
	</g>
	<g>
		<path class="st0" d="M19,27.3l-7,9.2c-0.2,0.3-0.3,0.7-0.1,1s0.5,0.6,0.9,0.6H16v8.5c0,0.6,0.4,1,1,1h5.6c0.6,0,1-0.4,1-1v-8.5
			h3.2c0.4,0,0.7-0.2,0.9-0.6c0.2-0.3,0.1-0.7-0.1-1l-7-9.2C20.2,26.8,19.4,26.8,19,27.3z M22.6,36.1c-0.6,0-1,0.4-1,1v8.5H18v-8.5
			c0-0.6-0.4-1-1-1h-2.2l5-6.5l5,6.5H22.6z"/>
	</g>
	<g>
		<path class="st0" d="M31,47.6h5.6c0.6,0,1-0.4,1-1V31.4h3.2c0.4,0,0.7-0.2,0.9-0.6c0.2-0.3,0.1-0.7-0.1-1l-7-9.2
			c-0.2-0.2-0.5-0.4-0.8-0.4s-0.6,0.1-0.8,0.4l-7,9.2c-0.2,0.3-0.3,0.7-0.1,1c0.2,0.3,0.5,0.6,0.9,0.6H30v15.2
			C30,47.1,30.5,47.6,31,47.6z M28.8,29.4l5-6.5l5,6.5h-2.2c-0.6,0-1,0.4-1,1v15.2H32V30.4c0-0.6-0.4-1-1-1H28.8z"/>
	</g>
	<g>
		<path class="st0" d="M55.7,23.2c0.2-0.3,0.1-0.7-0.1-1l-7-9.2c-0.4-0.5-1.2-0.5-1.6,0l-7,9.2c-0.2,0.3-0.3,0.7-0.1,1
			s0.5,0.6,0.9,0.6H44v22.8c0,0.6,0.4,1,1,1h5.6c0.6,0,1-0.4,1-1V23.8h3.2C55.2,23.8,55.6,23.5,55.7,23.2z M50.6,21.8
			c-0.6,0-1,0.4-1,1v22.8H46V22.8c0-0.6-0.4-1-1-1h-2.2l5-6.5l5,6.5H50.6z"/>
	</g>
	<g>
		<path class="st0" d="M13.8,50.9h40.3c0.6,0,1-0.4,1-1s-0.4-1-1-1H13.8c-0.6,0-1,0.4-1,1S13.3,50.9,13.8,50.9z"/>
	</g>
</g>
</svg>
