<svg xmlns="http://www.w3.org/2000/svg" xmlns:xlink="http://www.w3.org/1999/xlink" version="1.1" x="0px" y="0px" viewBox="0 0 100 100" enable-background="new 0 0 100 100" xml:space="preserve"><path d="M47.207,80.777c0.688,0.482,1.49,0.723,2.293,0.723s1.604-0.24,2.293-0.723C53.006,79.928,81.5,59.691,81.5,33.5  c0-17.645-14.355-32-32-32s-32,14.355-32,32C17.5,59.691,45.994,79.928,47.207,80.777z M49.5,9.5c13.234,0,24,10.767,24,24  c0,18.089-17.594,33.834-24,38.967c-6.406-5.133-24-20.878-24-38.967C25.5,20.267,36.267,9.5,49.5,9.5z M61.5,33.5  c0-6.617-5.383-12-12-12s-12,5.383-12,12s5.383,12,12,12S61.5,40.117,61.5,33.5z M45.5,33.5c0-2.206,1.794-4,4-4  c2.207,0,4,1.794,4,4s-1.793,4-4,4C47.294,37.5,45.5,35.706,45.5,33.5z M93.012,91.584l-12-21.998  C80.311,68.301,78.963,67.5,77.5,67.5h-4c-2.209,0-4,1.791-4,4s1.791,4,4,4h1.625l7.637,14H16.238l7.637-14h1.624  c2.209,0,4-1.791,4-4s-1.791-4-4-4H21.5c-1.464,0-2.811,0.801-3.512,2.086l-12,21.998c-0.676,1.24-0.648,2.744,0.072,3.957  C6.781,96.756,8.088,97.5,9.5,97.5h80c1.412,0,2.719-0.744,3.439-1.959C93.66,94.328,93.688,92.824,93.012,91.584z"></path></svg>